<?xml version="1.0" encoding="UTF-8"?>
<svg id="Layer_1" data-name="Layer 1" xmlns="http://www.w3.org/2000/svg" xmlns:xlink="http://www.w3.org/1999/xlink" viewBox="0 0 497.92 126.37">
  <defs>
    <style>
      .cls-1 {
        fill: #333;
      }

      .cls-2 {
        fill: gray;
      }

      .cls-3 {
        fill: url(#radial-gradient);
      }

      .cls-4 {
        fill: #999;
      }

      .cls-5 {
        fill: #ccc;
      }

      .cls-6 {
        fill: #666;
      }
    </style>
    <radialGradient id="radial-gradient" cx="268.61" cy="61.74" fx="268.61" fy="61.74" r="58.65" gradientTransform="translate(0 .03) scale(1.02)" gradientUnits="userSpaceOnUse">
      <stop offset=".15" stop-color="#f7931e"/>
      <stop offset=".2" stop-color="#f7931e" stop-opacity=".75"/>
      <stop offset=".28" stop-color="#f7931e" stop-opacity=".6"/>
      <stop offset=".41" stop-color="#f7931e" stop-opacity=".42"/>
      <stop offset=".53" stop-color="#f7931e" stop-opacity=".27"/>
      <stop offset=".65" stop-color="#f7931e" stop-opacity=".15"/>
      <stop offset=".77" stop-color="#f7931e" stop-opacity=".07"/>
      <stop offset=".89" stop-color="#f7931e" stop-opacity=".02"/>
      <stop offset="1" stop-color="#f7931e" stop-opacity="0"/>
    </radialGradient>
  </defs>
  <path class="cls-3" d="M274.79,123.19c-16.66,0-30.85-5.4-42.5-16.24-11.67-10.82-17.5-25.4-17.5-43.76s5.83-32.95,17.5-43.77c11.65-10.82,25.83-16.24,42.5-16.24s30.82,5.42,42.5,16.24c11.66,10.82,17.5,25.41,17.5,43.77s-5.84,32.94-17.5,43.76c-11.67,10.83-25.84,16.24-42.5,16.24Z"/>
  <g>
    <path class="cls-6" d="M0,63.41c0-3.41,.56-6.38,1.67-8.93,1.11-2.54,2.59-4.66,4.43-6.34,1.84-1.68,3.95-2.94,6.35-3.78,2.39-.84,4.84-1.26,7.35-1.26,5.85,0,10.33,1.62,13.45,4.85,3.12,3.24,4.68,8.16,4.68,14.78v1.15c0,.47-.03,.9-.08,1.3H8.1c.33,4,1.64,7.04,3.93,9.11,2.28,2.08,5.85,3.11,10.69,3.11,2.73,0,5.02-.21,6.89-.63,1.86-.42,3.27-.83,4.22-1.22l1.09,5.78c-.95,.44-2.6,.91-4.97,1.41-2.37,.49-5.05,.74-8.06,.74-3.79,0-7.06-.51-9.81-1.52-2.76-1.01-5.03-2.41-6.81-4.19-1.78-1.78-3.11-3.89-3.97-6.34-.86-2.45-1.29-5.12-1.29-8.04Zm29.72-3.22c.05-3.11-.82-5.67-2.63-7.67-1.81-2-4.3-3-7.47-3-1.78,0-3.35,.31-4.72,.93-1.36,.62-2.52,1.42-3.47,2.41-.95,.99-1.68,2.12-2.21,3.41-.53,1.28-.88,2.59-1.04,3.93H29.72Z"/>
    <path class="cls-6" d="M43.92,44.77c1.78-.39,4.13-.82,7.05-1.26s6.3-.67,10.14-.67c2.78,0,5.12,.33,7.01,1,1.89,.67,3.48,1.64,4.76,2.93,.39-.25,1-.59,1.84-1.04,.84-.45,1.86-.88,3.09-1.3,1.22-.42,2.59-.79,4.09-1.11,1.5-.32,3.11-.48,4.84-.48,3.34,0,6.06,.43,8.18,1.3,2.11,.86,3.77,2.09,4.97,3.67,1.2,1.58,2,3.46,2.42,5.63,.42,2.17,.63,4.54,.63,7.11v21.64h-7v-20.16c0-2.27-.13-4.22-.38-5.85s-.73-2.99-1.43-4.08c-.7-1.09-1.66-1.89-2.86-2.41-1.21-.52-2.76-.78-4.67-.78-2.64,0-4.81,.31-6.52,.93-1.71,.62-2.87,1.17-3.49,1.67,.45,1.28,.78,2.69,1.01,4.22,.22,1.53,.34,3.14,.34,4.82v21.64h-8v-20.16c0-2.27-.14-4.22-.42-5.85s-.77-2.99-1.47-4.08c-.7-1.09-1.66-1.89-2.86-2.41-1.21-.52-2.73-.78-4.58-.78-.79,0-1.63,.03-2.52,.07s-1.75,.11-2.57,.18c-.81,.07-1.56,.16-2.23,.26-.67,.1-1.12,.17-1.35,.22v32.53h-8V44.77Z"/>
    <path class="cls-6" d="M117.7,37.38c-1.39,0-2.58-.41-3.55-1.22-.98-.82-1.46-1.91-1.46-3.3s.49-2.48,1.46-3.3c.97-.82,2.16-1.22,3.55-1.22s2.57,.41,3.55,1.22c.97,.82,1.46,1.91,1.46,3.3s-.49,2.48-1.46,3.3c-.98,.82-2.16,1.22-3.55,1.22Z"/>
    <rect class="cls-6" x="113.92" y="44.19" width="8" height="39"/>
    <path class="cls-6" d="M139.92,44.19h16v6h-16v18.46c0,2,.17,3.65,.52,4.96,.34,1.31,.86,2.33,1.55,3.08,.69,.74,1.55,1.27,2.58,1.58s2.24,.46,3.61,.46c2.41,0,4.34-.24,5.81-.73,1.46-.49,2.48-.83,3.05-1.04l1.55,5.92c-.8,.36-2.21,.81-4.21,1.35-2.01,.54-4.3,.81-6.88,.81-3.04,0-5.55-.35-7.53-1.04-1.98-.69-3.57-1.73-4.77-3.12s-2.05-3.09-2.54-5.12c-.49-2.03-.73-4.37-.73-7.04V33.03l8-1.23v12.38Z"/>
    <path class="cls-6" d="M173.92,44.19h16v6h-16v18.46c0,2,.17,3.65,.52,4.96,.34,1.31,.86,2.33,1.55,3.08,.69,.74,1.55,1.27,2.58,1.58s2.24,.46,3.61,.46c2.41,0,4.34-.24,5.81-.73,1.46-.49,2.48-.83,3.05-1.04l1.55,5.92c-.8,.36-2.21,.81-4.21,1.35-2.01,.54-4.3,.81-6.88,.81-3.04,0-5.55-.35-7.53-1.04-1.98-.69-3.57-1.73-4.77-3.12s-2.05-3.09-2.54-5.12c-.49-2.03-.73-4.37-.73-7.04V33.03l8-1.23v12.38Z"/>
    <rect class="cls-6" x="198.92" y="44.19" width="8" height="39"/>
    <path class="cls-6" d="M254.83,44.19c-2.2,7.3-4.78,14.3-7.73,21-2.96,6.7-5.82,12.7-8.58,18h-7.1c-2.76-5.3-5.62-11.3-8.58-18-2.96-6.7-5.54-13.7-7.73-21h8.45c.68,2.45,1.48,5.06,2.41,7.84s1.91,5.53,2.96,8.25c1.04,2.73,2.1,5.36,3.17,7.91,1.07,2.55,2.08,4.83,3.04,6.83,.96-2,1.97-4.28,3.04-6.83,1.07-2.55,2.13-5.19,3.17-7.91,1.04-2.72,2.03-5.47,2.96-8.25s1.73-5.39,2.41-7.84h8.11Z"/>
    <path class="cls-4" d="M202.93,23.22c-1.39,0-2.58-.41-3.55-1.22-.98-.82-1.46-1.91-1.46-3.3s.49-2.48,1.46-3.3c.97-.82,2.16-1.22,3.55-1.22s2.57,.41,3.55,1.22c.97,.82,1.46,1.91,1.46,3.3s-.49,2.48-1.46,3.3c-.98,.82-2.16,1.22-3.55,1.22Z"/>
    <path class="cls-1" d="M117.44,9.04c-1.39,0-2.58-.41-3.55-1.22-.98-.82-1.46-1.91-1.46-3.3s.49-2.48,1.46-3.3c.97-.82,2.16-1.22,3.55-1.22s2.57,.41,3.55,1.22c.97,.82,1.46,1.91,1.46,3.3s-.49,2.48-1.46,3.3c-.98,.82-2.16,1.22-3.55,1.22Z"/>
    <path class="cls-1" d="M202.93,9.04c-1.39,0-2.58-.41-3.55-1.22-.98-.82-1.46-1.91-1.46-3.3s.49-2.48,1.46-3.3c.97-.82,2.16-1.22,3.55-1.22s2.57,.41,3.55,1.22c.97,.82,1.46,1.91,1.46,3.3s-.49,2.48-1.46,3.3c-.98,.82-2.16,1.22-3.55,1.22Z"/>
    <path class="cls-4" d="M117.44,112.19c-1.39,0-2.58-.41-3.55-1.22-.98-.82-1.46-1.91-1.46-3.3s.49-2.48,1.46-3.3c.97-.82,2.16-1.22,3.55-1.22s2.57,.41,3.55,1.22c.97,.82,1.46,1.91,1.46,3.3s-.49,2.48-1.46,3.3c-.98,.82-2.16,1.22-3.55,1.22Z"/>
    <path class="cls-5" d="M202.93,98.01c-1.39,0-2.58-.41-3.55-1.22-.98-.82-1.46-1.91-1.46-3.3s.49-2.48,1.46-3.3c.97-.82,2.16-1.22,3.55-1.22s2.57,.41,3.55,1.22c.97,.82,1.46,1.91,1.46,3.3s-.49,2.48-1.46,3.3c-.98,.82-2.16,1.22-3.55,1.22Z"/>
    <path class="cls-1" d="M117.44,126.37c-1.39,0-2.58-.41-3.55-1.22-.98-.82-1.46-1.91-1.46-3.3s.49-2.48,1.46-3.3c.97-.82,2.16-1.22,3.55-1.22s2.57,.41,3.55,1.22c.97,.82,1.46,1.91,1.46,3.3s-.49,2.48-1.46,3.3c-.98,.82-2.16,1.22-3.55,1.22Z"/>
    <path class="cls-4" d="M202.93,112.19c-1.39,0-2.58-.41-3.55-1.22-.98-.82-1.46-1.91-1.46-3.3s.49-2.48,1.46-3.3c.97-.82,2.16-1.22,3.55-1.22s2.57,.41,3.55,1.22c.97,.82,1.46,1.91,1.46,3.3s-.49,2.48-1.46,3.3c-.98,.82-2.16,1.22-3.55,1.22Z"/>
  </g>
  <g>
    <path class="cls-2" d="M306.95,66.62c1.09,0,1.88-.18,2.38-.55,.5-.37,.74-.89,.74-1.56,0-.4-.08-.75-.25-1.04-.17-.29-.41-.55-.72-.78-.31-.23-.69-.45-1.14-.65s-.96-.4-1.54-.59c-.58-.21-1.13-.44-1.67-.69-.54-.25-1.01-.56-1.42-.93-.41-.37-.74-.81-.98-1.32-.25-.51-.37-1.13-.37-1.85,0-1.51,.52-2.69,1.56-3.55,1.04-.86,2.46-1.29,4.25-1.29,1.04,0,1.96,.12,2.77,.35,.81,.23,1.44,.49,1.91,.76l-.94,2.46c-.54-.3-1.14-.54-1.79-.7s-1.32-.24-2-.24c-.82,0-1.45,.17-1.91,.51-.46,.34-.68,.81-.68,1.42,0,.37,.08,.69,.23,.95,.15,.26,.37,.5,.65,.71,.28,.21,.61,.4,.98,.58,.38,.18,.79,.35,1.24,.51,.78,.29,1.48,.58,2.1,.88,.62,.3,1.14,.65,1.56,1.06,.42,.41,.75,.89,.97,1.44,.22,.55,.34,1.22,.34,2.01,0,1.51-.53,2.68-1.6,3.5-1.06,.83-2.62,1.24-4.67,1.24-.69,0-1.32-.04-1.88-.13-.57-.09-1.07-.2-1.51-.33-.44-.13-.82-.26-1.14-.4-.32-.14-.58-.26-.77-.37l.89-2.48c.43,.24,1.02,.48,1.75,.72,.74,.24,1.62,.36,2.66,.36Z"/>
    <path class="cls-2" d="M315.04,62.65c0-1.11,.16-2.08,.49-2.91,.33-.83,.76-1.53,1.31-2.08,.54-.55,1.17-.97,1.87-1.25,.7-.28,1.42-.42,2.16-.42,1.73,0,3.08,.54,4.04,1.61,.97,1.08,1.45,2.68,1.45,4.81,0,.16,0,.34-.01,.54,0,.2-.02,.38-.04,.54h-8.28c.08,1.01,.44,1.79,1.07,2.35,.63,.55,1.55,.83,2.75,.83,.7,0,1.35-.06,1.93-.19,.58-.13,1.04-.26,1.38-.41l.38,2.38c-.16,.08-.38,.17-.66,.25-.28,.09-.6,.17-.96,.24s-.75,.13-1.16,.18c-.42,.05-.84,.07-1.27,.07-1.1,0-2.06-.16-2.88-.49-.82-.33-1.49-.79-2.02-1.37-.53-.58-.92-1.28-1.18-2.07-.26-.79-.38-1.66-.38-2.61Zm8.42-1.3c0-.4-.06-.78-.17-1.14-.11-.36-.28-.67-.49-.94-.22-.27-.48-.47-.79-.63-.31-.15-.68-.23-1.12-.23s-.84,.08-1.18,.25-.62,.39-.85,.66c-.23,.27-.41,.59-.54,.94-.13,.35-.22,.71-.26,1.08h5.4Z"/>
    <path class="cls-2" d="M329.44,56.7c.56-.16,1.29-.31,2.18-.46,.9-.14,1.89-.22,2.98-.22,1.02,0,1.88,.14,2.57,.42,.69,.28,1.24,.67,1.64,1.18,.41,.51,.7,1.12,.86,1.83,.17,.71,.25,1.5,.25,2.35v7.08h-2.9v-6.62c0-.67-.04-1.25-.13-1.72-.09-.47-.23-.86-.43-1.16-.2-.3-.47-.51-.82-.65-.34-.14-.76-.2-1.26-.2-.37,0-.75,.02-1.15,.07-.4,.05-.7,.09-.89,.12v10.16h-2.9v-12.18Z"/>
    <path class="cls-2" d="M346.62,66.79c.77,0,1.33-.09,1.68-.28s.53-.5,.53-.95c0-.42-.19-.76-.56-1.04-.38-.27-1-.57-1.86-.89-.53-.19-1.01-.4-1.45-.61-.44-.22-.82-.47-1.14-.76-.32-.29-.57-.64-.76-1.05s-.28-.91-.28-1.5c0-1.16,.42-2.07,1.27-2.73,.85-.67,2-1,3.46-1,.74,0,1.44,.07,2.11,.2s1.18,.27,1.51,.4l-.53,2.36c-.32-.14-.73-.28-1.22-.4-.5-.12-1.07-.18-1.73-.18-.59,0-1.07,.1-1.44,.3-.37,.2-.55,.51-.55,.93,0,.21,.04,.39,.11,.55,.07,.16,.2,.31,.37,.45,.18,.14,.41,.27,.7,.41,.29,.14,.64,.28,1.06,.42,.69,.26,1.27,.51,1.75,.76,.48,.25,.88,.53,1.19,.84,.31,.31,.54,.67,.68,1.07,.14,.4,.22,.88,.22,1.44,0,1.2-.44,2.11-1.33,2.73-.89,.62-2.16,.93-3.8,.93-1.1,0-1.99-.09-2.66-.28s-1.14-.33-1.42-.45l.5-2.43c.43,.18,.95,.35,1.55,.51,.6,.16,1.28,.24,2.05,.24Z"/>
    <path class="cls-2" d="M353.75,62.65c0-1.11,.16-2.08,.49-2.91,.33-.83,.76-1.53,1.31-2.08s1.17-.97,1.87-1.25c.7-.28,1.42-.42,2.16-.42,1.73,0,3.08,.54,4.04,1.61,.97,1.08,1.45,2.68,1.45,4.81,0,.16,0,.34-.01,.54,0,.2-.02,.38-.04,.54h-8.28c.08,1.01,.44,1.79,1.07,2.35s1.55,.83,2.75,.83c.7,0,1.35-.06,1.93-.19,.58-.13,1.04-.26,1.38-.41l.38,2.38c-.16,.08-.38,.17-.66,.25-.28,.09-.6,.17-.96,.24s-.75,.13-1.16,.18c-.42,.05-.84,.07-1.27,.07-1.1,0-2.06-.16-2.88-.49-.82-.33-1.49-.79-2.02-1.37-.53-.58-.92-1.28-1.18-2.07-.26-.79-.38-1.66-.38-2.61Zm8.42-1.3c0-.4-.06-.78-.17-1.14-.11-.36-.28-.67-.49-.94-.22-.27-.48-.47-.79-.63-.31-.15-.68-.23-1.12-.23s-.84,.08-1.18,.25-.62,.39-.85,.66c-.23,.27-.41,.59-.54,.94-.13,.35-.22,.71-.26,1.08h5.4Z"/>
    <path class="cls-2" d="M371.3,66.79c.77,0,1.33-.09,1.68-.28s.53-.5,.53-.95c0-.42-.19-.76-.56-1.04-.38-.27-1-.57-1.86-.89-.53-.19-1.01-.4-1.45-.61-.44-.22-.82-.47-1.14-.76-.32-.29-.57-.64-.76-1.05s-.28-.91-.28-1.5c0-1.16,.42-2.07,1.27-2.73,.85-.67,2-1,3.46-1,.74,0,1.44,.07,2.11,.2s1.18,.27,1.51,.4l-.53,2.36c-.32-.14-.73-.28-1.22-.4-.5-.12-1.07-.18-1.73-.18-.59,0-1.07,.1-1.44,.3-.37,.2-.55,.51-.55,.93,0,.21,.04,.39,.11,.55,.07,.16,.2,.31,.37,.45,.18,.14,.41,.27,.7,.41,.29,.14,.64,.28,1.06,.42,.69,.26,1.27,.51,1.75,.76,.48,.25,.88,.53,1.19,.84,.31,.31,.54,.67,.68,1.07,.14,.4,.22,.88,.22,1.44,0,1.2-.44,2.11-1.33,2.73-.89,.62-2.16,.93-3.8,.93-1.1,0-1.99-.09-2.66-.28s-1.14-.33-1.42-.45l.5-2.43c.43,.18,.95,.35,1.55,.51,.6,.16,1.28,.24,2.05,.24Z"/>
    <path class="cls-2" d="M389.82,50.2c.67,0,1.26,.06,1.78,.18,.51,.12,.9,.23,1.15,.33l-.55,2.41c-.27-.13-.59-.23-.95-.31-.36-.08-.75-.12-1.16-.12-.46,0-.86,.07-1.18,.2-.32,.14-.58,.32-.77,.57-.19,.24-.33,.53-.41,.88s-.12,.72-.12,1.12v.84h4.56v2.43h-4.56v10.16h-2.9v-13.48c0-1.62,.42-2.89,1.27-3.82,.85-.92,2.13-1.38,3.84-1.38Z"/>
    <path class="cls-2" d="M405.42,62.57c0,1-.14,1.9-.43,2.72-.29,.82-.7,1.52-1.22,2.09-.53,.58-1.16,1.03-1.91,1.35-.74,.32-1.56,.48-2.46,.48s-1.71-.16-2.45-.48c-.74-.32-1.37-.77-1.9-1.35-.53-.58-.94-1.28-1.24-2.09-.3-.82-.44-1.72-.44-2.72s.15-1.9,.44-2.71c.3-.81,.71-1.5,1.25-2.08s1.17-1.02,1.91-1.34c.74-.31,1.54-.47,2.42-.47s1.69,.16,2.44,.47,1.38,.76,1.91,1.34c.53,.58,.94,1.27,1.24,2.08,.3,.81,.44,1.71,.44,2.71Zm-2.98,0c0-1.25-.27-2.24-.8-2.97-.54-.73-1.28-1.1-2.24-1.1s-1.71,.37-2.24,1.1c-.54,.73-.8,1.72-.8,2.97s.27,2.27,.8,3.01c.54,.74,1.28,1.11,2.24,1.11s1.71-.37,2.24-1.11c.54-.74,.8-1.74,.8-3.01Z"/>
    <path class="cls-2" d="M415.57,58.91c-.24-.08-.57-.16-1-.25-.42-.09-.92-.13-1.48-.13-.32,0-.66,.03-1.02,.1-.36,.06-.61,.12-.76,.17v10.09h-2.9v-11.99c.56-.21,1.26-.41,2.1-.59,.84-.18,1.77-.28,2.8-.28,.19,0,.42,.01,.67,.04s.51,.06,.77,.1c.26,.04,.5,.09,.74,.14,.24,.06,.43,.11,.58,.16l-.5,2.46Z"/>
    <path class="cls-2" d="M427.86,66.62c1.09,0,1.88-.18,2.38-.55,.5-.37,.74-.89,.74-1.56,0-.4-.08-.75-.25-1.04-.17-.29-.41-.55-.72-.78-.31-.23-.69-.45-1.14-.65-.45-.2-.96-.4-1.54-.59-.58-.21-1.13-.44-1.67-.69-.54-.25-1.01-.56-1.42-.93-.41-.37-.74-.81-.98-1.32s-.37-1.13-.37-1.85c0-1.51,.52-2.69,1.56-3.55s2.46-1.29,4.25-1.29c1.04,0,1.96,.12,2.77,.35,.81,.23,1.44,.49,1.91,.76l-.94,2.46c-.54-.3-1.14-.54-1.79-.7-.65-.16-1.32-.24-2-.24-.82,0-1.45,.17-1.91,.51s-.68,.81-.68,1.42c0,.37,.08,.69,.23,.95,.15,.26,.37,.5,.65,.71,.28,.21,.61,.4,.98,.58,.38,.18,.79,.35,1.24,.51,.78,.29,1.48,.58,2.1,.88s1.14,.65,1.56,1.06,.75,.89,.97,1.44c.22,.55,.34,1.22,.34,2.01,0,1.51-.53,2.68-1.6,3.5-1.06,.83-2.62,1.24-4.67,1.24-.69,0-1.32-.04-1.88-.13-.57-.09-1.07-.2-1.51-.33-.44-.13-.82-.26-1.14-.4-.32-.14-.58-.26-.77-.37l.89-2.48c.43,.24,1.02,.48,1.75,.72,.74,.24,1.62,.36,2.66,.36Z"/>
    <path class="cls-2" d="M447.95,62.6c0,.96-.12,1.85-.37,2.65-.25,.8-.6,1.49-1.07,2.07-.46,.58-1.04,1.03-1.74,1.35-.7,.32-1.48,.48-2.36,.48-.59,0-1.14-.07-1.63-.22s-.9-.3-1.22-.48v4.89h-2.9v-16.63c.59-.16,1.32-.31,2.18-.46,.86-.14,1.78-.22,2.74-.22s1.88,.15,2.66,.46c.78,.31,1.45,.74,2,1.31,.55,.57,.98,1.26,1.27,2.07,.3,.81,.44,1.72,.44,2.73Zm-2.98,.05c0-1.3-.29-2.31-.88-3.03-.58-.72-1.52-1.08-2.82-1.08-.27,0-.56,.01-.85,.04s-.59,.08-.88,.16v7.2c.26,.18,.6,.34,1.02,.49,.42,.15,.88,.23,1.36,.23,1.06,0,1.83-.36,2.32-1.08,.49-.72,.73-1.69,.73-2.91Z"/>
    <path class="cls-2" d="M455.13,55.98c.96,0,1.77,.12,2.42,.36,.66,.24,1.18,.58,1.57,1.01,.39,.43,.67,.96,.84,1.58s.25,1.3,.25,2.03v7.63c-.45,.1-1.12,.21-2.03,.35-.9,.14-1.92,.2-3.06,.2-.75,0-1.44-.07-2.06-.22s-1.16-.38-1.6-.7c-.44-.32-.78-.74-1.03-1.25s-.37-1.15-.37-1.9,.14-1.33,.42-1.83c.28-.5,.66-.9,1.14-1.22,.48-.31,1.04-.54,1.67-.67,.63-.14,1.29-.2,1.98-.2,.32,0,.66,.02,1.01,.06s.73,.11,1.13,.2v-.48c0-.34-.04-.66-.12-.96-.08-.3-.22-.57-.42-.81s-.46-.41-.79-.54c-.33-.13-.74-.19-1.24-.19-.67,0-1.29,.05-1.85,.14-.56,.1-1.02,.21-1.37,.34l-.36-2.36c.37-.13,.9-.26,1.61-.39s1.46-.19,2.26-.19Zm.24,10.86c.9,0,1.58-.05,2.04-.14v-3.23c-.16-.05-.39-.1-.7-.14-.3-.05-.64-.07-1.01-.07-.32,0-.64,.02-.97,.07-.33,.05-.62,.14-.89,.27-.26,.13-.48,.31-.64,.54-.16,.23-.24,.53-.24,.88,0,.69,.22,1.17,.65,1.43,.43,.26,1.02,.4,1.75,.4Z"/>
    <path class="cls-2" d="M463.07,62.6c0-.93,.14-1.8,.43-2.61s.7-1.51,1.24-2.11c.54-.59,1.19-1.06,1.96-1.4,.77-.34,1.63-.51,2.59-.51,1.18,0,2.3,.22,3.36,.65l-.62,2.38c-.34-.14-.72-.26-1.14-.36-.42-.1-.88-.14-1.36-.14-1.14,0-2,.36-2.59,1.07s-.89,1.72-.89,3.02,.28,2.24,.84,2.97c.56,.73,1.5,1.09,2.83,1.09,.5,0,.98-.05,1.46-.14,.48-.1,.9-.22,1.25-.36l.41,2.41c-.32,.16-.8,.3-1.45,.43-.65,.13-1.32,.19-2,.19-1.07,0-2-.16-2.8-.49-.79-.33-1.45-.79-1.97-1.37-.52-.58-.91-1.28-1.16-2.09s-.38-1.69-.38-2.64Z"/>
    <path class="cls-2" d="M474.4,62.65c0-1.11,.16-2.08,.49-2.91,.33-.83,.76-1.53,1.31-2.08s1.17-.97,1.87-1.25c.7-.28,1.42-.42,2.16-.42,1.73,0,3.08,.54,4.04,1.61,.97,1.08,1.45,2.68,1.45,4.81,0,.16,0,.34-.01,.54,0,.2-.02,.38-.04,.54h-8.28c.08,1.01,.44,1.79,1.07,2.35s1.55,.83,2.75,.83c.7,0,1.35-.06,1.93-.19,.58-.13,1.04-.26,1.38-.41l.38,2.38c-.16,.08-.38,.17-.66,.25-.28,.09-.6,.17-.96,.24s-.75,.13-1.16,.18c-.42,.05-.84,.07-1.27,.07-1.1,0-2.06-.16-2.88-.49-.82-.33-1.49-.79-2.02-1.37-.53-.58-.92-1.28-1.18-2.07-.26-.79-.38-1.66-.38-2.61Zm8.42-1.3c0-.4-.06-.78-.17-1.14-.11-.36-.28-.67-.49-.94-.22-.27-.48-.47-.79-.63-.31-.15-.68-.23-1.12-.23s-.84,.08-1.18,.25-.62,.39-.85,.66c-.23,.27-.41,.59-.54,.94-.13,.35-.22,.71-.26,1.08h5.4Z"/>
    <path class="cls-2" d="M491.94,66.79c.77,0,1.33-.09,1.68-.28s.53-.5,.53-.95c0-.42-.19-.76-.56-1.04-.38-.27-1-.57-1.86-.89-.53-.19-1.01-.4-1.45-.61-.44-.22-.82-.47-1.14-.76-.32-.29-.57-.64-.76-1.05s-.28-.91-.28-1.5c0-1.16,.42-2.07,1.27-2.73,.85-.67,2-1,3.46-1,.74,0,1.44,.07,2.11,.2s1.18,.27,1.51,.4l-.53,2.36c-.32-.14-.73-.28-1.22-.4-.5-.12-1.07-.18-1.73-.18-.59,0-1.07,.1-1.44,.3-.37,.2-.55,.51-.55,.93,0,.21,.04,.39,.11,.55,.07,.16,.2,.31,.37,.45,.18,.14,.41,.27,.7,.41,.29,.14,.64,.28,1.06,.42,.69,.26,1.27,.51,1.75,.76,.48,.25,.88,.53,1.19,.84,.31,.31,.54,.67,.68,1.07,.14,.4,.22,.88,.22,1.44,0,1.2-.44,2.11-1.33,2.73-.89,.62-2.16,.93-3.8,.93-1.1,0-1.99-.09-2.66-.28s-1.14-.33-1.42-.45l.5-2.43c.43,.18,.95,.35,1.55,.51,.6,.16,1.28,.24,2.05,.24Z"/>
  </g>
</svg>