<svg id="Layer_1" data-name="Layer 1"
  xmlns="http://www.w3.org/2000/svg" viewBox="0 0 1920 950">
  <defs>
    <style>
      .cls-1 {
        fill: #fff;
      }

      .cls-2 {
        fill: #999;
      }

      .cls-3 {
        fill: #333;
      }
    </style>
  </defs>
  <path id="e" class="cls-1" d="M0,477.21q0-38.43,12.59-67.12T46,362.46A138.18,138.18,0,0,1,93.8,334.05a166.65,166.65,0,0,1,55.39-9.46q66.12,0,101.36,36.48T285.8,472.2v8.64a71.35,71.35,0,0,1-.62,9.74H61.06q3.78,45.12,29.59,68.52t80.58,23.39q30.84,0,51.93-4.73t31.8-9.19L263.14,612q-10.71,5-37.45,10.58t-60.75,5.57q-42.83,0-74-11.42T39.66,585.28a124.94,124.94,0,0,1-29.9-47.63Q0,510.08,0,477.21Zm224.24-25.64q.62-35.08-19.84-57.66t-56.34-22.56q-20.15,0-35.57,7a83.41,83.41,0,0,0-26.12,18.1,81.49,81.49,0,0,0-16.68,25.63,113.83,113.83,0,0,0-7.87,29.52Z"/>
  <path id="m" class="cls-1" d="M333.81,340.33q20.19-4.44,53.32-9.47t76.65-5q31.55,0,53,7.53t36,22q4.41-2.78,13.88-7.8A163.13,163.13,0,0,1,590,337.83a272.5,272.5,0,0,1,30.91-8.36,176.12,176.12,0,0,1,36.6-3.63q37.85,0,61.83,9.76t37.54,27.57q13.56,17.83,18.29,42.34A282.75,282.75,0,0,1,779.88,459V621.64h-58V470.12q0-25.61-2.86-44T708.2,395.47a47.6,47.6,0,0,0-21.61-18.1q-13.67-5.85-35.27-5.85-29.9,0-49.27,7T575.68,391a171.66,171.66,0,0,1,7.63,31.75A250.79,250.79,0,0,1,585.85,459V621.64h-58V470.12q0-25.61-3.18-44t-11.12-30.64a47.6,47.6,0,0,0-21.61-18.1q-13.67-5.85-34.64-5.85-8.91,0-19.07.56t-19.39,1.39q-9.21.84-16.84,1.95c-5.08.75-8.48,1.31-10.17,1.67V621.64h-58Z"/>
  <rect id="i1" class="cls-1" x="856.89" y="330.52" width="58.01" height="291.12"/>
  <path id="t1" class="cls-1" d="M1050.92,335.52h126v44h-126V513.2q0,21.81,3.72,36.07t11.25,22.37a40.9,40.9,0,0,0,18.75,11.46,92.15,92.15,0,0,0,26.26,3.35q26.25,0,42.2-5.3t22.19-7.55l11.25,43q-8.74,3.92-30.62,9.79t-50,5.87q-33.15,0-54.71-7.55t-34.69-22.64q-13.12-15.11-18.45-37.19c-3.54-14.72-5.31-31.78-5.14-51.16V254.31l58-8.95Z"/>
  <path id="t2" class="cls-1" d="M1308,335.52h121v44H1308V513.2c-.27,14.54,1,26.57,3.48,36.07s6.25,17,11.25,22.37a40.9,40.9,0,0,0,18.75,11.46,92.15,92.15,0,0,0,26.26,3.35q26.25,0,42.2-5.3t22.19-7.55l11.25,43q-8.74,3.92-30.62,9.79t-50,5.87q-33.15,0-54.71-7.55t-34.69-22.64q-13.12-15.11-18.44-37.19c-3.55-14.72-5.32-31.78-4.91-51.16V254.31l58-8.95Z"/>
  <rect id="i2" class="cls-1" x="1501.98" y="330.52" width="58.01" height="291.12"/>
  <path id="v" class="cls-1" d="M1920,330.52a1350.7,1350.7,0,0,1-57.89,156.75q-33.21,75-64.22,134.37h-53.14q-31-59.34-64.22-134.37a1348.9,1348.9,0,0,1-57.9-156.75h63.28q7.58,27.44,18,58.51t22.14,61.58q11.7,30.52,23.72,59.06t22.79,50.95q10.74-22.39,22.77-50.95t23.73-59.06q11.7-30.51,22.14-61.58t18-58.51Z"/>
  <path id="dot1" class="cls-3" d="M885.43,68q-15.73,0-26.75-9.19T847.66,34q0-15.58,11-24.79T885.43,0q15.72,0,26.75,9.19T923.2,34q0,15.6-11,24.79T885.43,68Z"/>
  <path id="dot2" class="cls-1" d="M887.34,281q-15.75,0-26.76-9.19t-11-24.78q0-15.6,11-24.79t26.76-9.2q15.72,0,26.75,9.2t11,24.79q0,15.58-11,24.78T887.34,281Z"/>
  <path id="dot3" class="cls-2" d="M885.43,843.38q-15.73,0-26.75-9.2t-11-24.78q0-15.58,11-24.79t26.75-9.19q15.72,0,26.75,9.19t11,24.79q0,15.6-11,24.78T885.43,843.38Z"/>
  <path id="dot4" class="cls-3" d="M885.43,950q-15.73,0-26.75-9.19t-11-24.79q0-15.59,11-24.79T885.43,882q15.72,0,26.75,9.19t11,24.79q0,15.6-11,24.79T885.43,950Z"/>
  <path id="dot5" class="cls-3" d="M1529.83,68q-15.74,0-26.75-9.19t-11-24.79q0-15.58,11-24.79T1529.83,0q15.72,0,26.75,9.19t11,24.79q0,15.6-11,24.79T1529.83,68Z"/>
  <path id="dot6" class="cls-2" d="M1529.83,174.58q-15.74,0-26.75-9.19t-11-24.79q0-15.58,11-24.78t26.75-9.2q15.72,0,26.75,9.2t11,24.78q0,15.6-11,24.79T1529.83,174.58Z"/>
  <path id="dot7" class="cls-1" d="M1529.83,736.76q-15.74,0-26.75-9.2t-11-24.78q0-15.59,11-24.79t26.75-9.19q15.72,0,26.75,9.19t11,24.79q0,15.6-11,24.78T1529.83,736.76Z"/>
  <path id="dot8" class="cls-2" d="M1529.83,843.38q-15.74,0-26.75-9.2t-11-24.78q0-15.58,11-24.79t26.75-9.19q15.72,0,26.75,9.19t11,24.79q0,15.6-11,24.78T1529.83,843.38Z"/>
</svg>
