<svg xmlns="http://www.w3.org/2000/svg">
    <defs>
        <g id="IconLightBulb">
            <path d="M4.8,21.6h7.2v2.4H4.8v-2.4Zm9.49-7.55c1.24-1.45,2.51-2.94,2.51-5.65C16.8,3.77,13.03,0,8.4,0S0,3.77,0,8.4c0,2.74,1.28,4.23,2.52,5.68,.43,.5,.87,1.02,1.3,1.62,.17,.25,.46,1.2,.71,2.31h-.93v2.4H13.2v-2.4h-.93c.26-1.11,.54-2.06,.71-2.31,.42-.6,.87-1.13,1.3-1.64Zm-3.27,.26c-.52,.74-.96,2.49-1.21,3.69h-2.82c-.25-1.2-.69-2.96-1.21-3.7-.45-.62-.93-1.22-1.44-1.79-1.17-1.36-1.94-2.26-1.94-4.11,0-3.31,2.69-6,6-6s6,2.69,6,6c0,1.83-.77,2.73-1.94,4.1-.45,.53-.96,1.12-1.44,1.81Z" />
        </g>
        <g id="IconVideoCam">
            <path d="M21.6,4.45h-6.7l2.75-2.75-1.7-1.7-3.95,3.95L8.05,0l-1.7,1.7,2.75,2.75H2.4c-1.32,0-2.4,1.08-2.4,2.4v13.2c0,1.32,1.08,2.4,2.4,2.4H21.6c1.32,0,2.4-1.08,2.4-2.4V6.85c0-1.32-1.08-2.4-2.4-2.4ZM2.4,20.05V6.85H21.6v13.2H2.4Z" />
        </g>
    </defs>
</svg>
